<svg width="57" height="68" viewBox="0 0 57 68" fill="none" xmlns="http://www.w3.org/2000/svg">
<path id="Ellipse 5" d="M3.89315 48.9506L2.08298 49.801L3.89315 48.9506ZM17.8364 62.8906L18.6301 61.0548L17.8364 62.8906ZM36.5513 63.7676L37.1686 65.6699L36.5513 63.7676ZM51.2142 52.0605L49.4959 51.0371L51.2142 52.0605ZM54.5143 33.6065L52.548 33.9722L52.548 33.9722L54.5143 33.6065ZM44.8063 17.6064L43.5743 19.1819L43.5743 19.1819L44.8063 17.6064ZM26.9304 12.0377L26.8123 10.0412L26.8123 10.0412L26.9304 12.0377ZM9.7994 19.677L23.0775 0.781877L32.8021 21.7286L9.7994 19.677ZM6.07506 29.4065C5.20221 32.4109 4.48983 35.8194 4.3174 39.1409C4.14411 42.479 4.52367 45.5893 5.70332 48.1001L2.08298 49.801C0.521213 46.4769 0.130513 42.6372 0.32278 38.9335C0.51591 35.2132 1.3049 31.4882 2.23388 28.2905L6.07506 29.4065ZM5.70332 48.1001C8.26514 53.5529 13.2165 58.7142 18.6301 61.0548L17.0427 64.7263C10.6208 61.9497 5.00398 56.0183 2.08298 49.801L5.70332 48.1001ZM18.6301 61.0548C24.1005 63.42 30.2522 63.7088 35.9341 61.8652L37.1686 65.6699C30.5631 67.8132 23.408 67.4784 17.0427 64.7263L18.6301 61.0548ZM35.9341 61.8652C41.616 60.0216 46.4377 56.1721 49.4959 51.0371L52.9325 53.0839C49.378 59.0522 43.774 63.5267 37.1686 65.6699L35.9341 61.8652ZM49.4959 51.0371C52.554 45.9023 53.6385 39.8353 52.548 33.9722L56.4806 33.2408C57.7491 40.0612 56.4871 47.1156 52.9325 53.0839L49.4959 51.0371ZM52.548 33.9722C51.4576 28.1092 48.2672 22.8514 43.5743 19.1819L46.0382 16.0309C51.4999 20.3015 55.2121 26.4201 56.4806 33.2408L52.548 33.9722ZM43.5743 19.1819C38.8815 15.5124 33.0066 13.6818 27.0485 14.0342L26.8123 10.0412C33.7413 9.63138 40.5766 11.7603 46.0382 16.0309L43.5743 19.1819ZM27.0485 14.0342C26.7997 14.049 26.5515 14.0674 26.304 14.0896L25.9466 10.1056C26.2345 10.0798 26.5231 10.0583 26.8123 10.0412L27.0485 14.0342Z" fill="#B9B9B9"/>
</svg>
